<?xml version="1.0" encoding="UTF-8"?>
<!-- Generator: Adobe Illustrator 19.1.0, SVG Export Plug-In . SVG Version: 6.00 Build 0)  -->
<svg version="1.1" id="Layer_1" xmlns="http://www.w3.org/2000/svg" xmlns:xlink="http://www.w3.org/1999/xlink" x="0px" y="0px" viewBox="494 -204 1600 1200" style="enable-background:new 494 -204 1600 1200;" xml:space="preserve">
<style type="text/css">
	.st0{fill:#ED1C24;}
	.st1{fill:url(#svg_120_1_);}
	.st2{fill:none;stroke:#ED1C24;stroke-width:24.3065;}
	.st3{fill:#FFFFFF;}
	.st4{fill:url(#svg_126_1_);stroke:#ED1C24;stroke-width:12.9141;stroke-linecap:square;stroke-linejoin:round;}
	.st5{fill:url(#svg_127_1_);}
	.st6{fill:url(#svg_128_1_);}
	.st7{fill:url(#svg_129_1_);}
	.st8{fill:url(#svg_130_1_);}
	.st9{fill:url(#svg_131_1_);stroke:#ED1C24;stroke-width:9.9031;stroke-linecap:square;stroke-linejoin:round;}
	.st10{fill:url(#SVGID_1_);stroke:url(#SVGID_2_);stroke-miterlimit:10;}
</style>
<title>FIREBALL</title>
<g>
	<title>Layer 1</title>
	<g id="svg_117">
		<path id="svg_118" class="st0" d="M1021.5,536.2l160.1,290.9c-79.2-13.8-171.9-20.8-203.8-316.2L1021.5,536.2z"/>
		<g id="svg_119">
			
				<linearGradient id="svg_120_1_" gradientUnits="userSpaceOnUse" x1="1975.5001" y1="-4.2252" x2="1974.5862" y2="-3.2008" gradientTransform="matrix(-32.0807 -228.2663 272.407 -38.2843 65316.8789 450862.5312)">
				<stop offset="0" style="stop-color:#FFFFFF"/>
				<stop offset="0.4835" style="stop-color:#FFF200"/>
				<stop offset="1" style="stop-color:#ED1C24"/>
			</linearGradient>
			<path id="svg_120" class="st1" d="M1088.4,236.2c0.2,1.3,0.3,2.6,0.2,4c-0.3,11.9-9.1,21.8-20.9,23.4l-8.4,1.2     c-62.2,8.9-94.8,10.4-153.7-53.1c-4.3-4.6-8.8-9.7-13.6-15.2c-6.3-7.3-12.1-14.2-17.6-20.5c-26.3-30.9-45.3-53.3-55.1-51.9     c-11.5,1.6-22.5-5.1-26.3-16.1c-0.5-1.5-0.9-3.1-1.1-4.6c-1.3-9.6,3.2-19.3,11.8-24.3C895.3,25.3,953,97.4,995.1,150     c23.9,29.9,48.7,60.9,73.7,65.6C1079.3,217.7,1087,226.1,1088.4,236.2L1088.4,236.2z"/>
			<path id="svg_121" class="st0" d="M816,100.1c120.8-70.9,161.9,123,248.3,139.5c-60.5,8.5-85.4,15.5-141-44.4     c-4.1-4.5-8.5-9.3-13-14.5C861.7,124.2,842.4,96.4,816,100.1 M768,106.8c0.4,3.1,1.2,6.2,2.2,9.2c6.9,19.9,25.8,32.8,46.4,32.6     c8.2,6.5,24.7,25.8,39.5,43.1c5.4,6.4,11.3,13.3,17.6,20.6c4.9,5.7,9.7,11,14.2,15.9c32.2,34.7,58.8,52.9,88.7,60.9     c29.3,7.8,55.7,4,86.2-0.4c2.7-0.4,5.5-0.8,8.4-1.2c23.5-3.3,41.2-23.1,41.8-46.9c0.1-2.7-0.1-5.4-0.5-8     c-2.8-20.3-18.3-37-39-40.9c-16.2-3.1-40.1-33-59.3-57c-23.9-29.6-48.7-60.5-81.9-80c-44-25.9-92.7-24.7-140.9,3.6     C774.3,68.3,765.3,87.7,768,106.8L768,106.8z"/>
		</g>
		<circle id="svg_122" class="st2" cx="1477.9" cy="530.8" r="418.9"/>
		<g id="svg_123">
			<path id="svg_124" class="st3" d="M1856.8,449.2c2.1,15.2,3.4,30.8,3.6,46.5c10.8,83.2-9.9,260.7-165.4,353     c-96.3,57.1-190.7,75.5-280.6,54.5c-69.2-16.1-134.1-55.2-192.9-116c-56.8-58.8-77.3-127.2-92.3-177.1     c-6.4-21.2-13.6-45.2-20-52.5c-5.1-5.7-30-13-48.2-18.3c-79.5-23.2-212.6-62.1-242.9-277.2c-2.5-18,8.3-35.2,25.7-40.7     c17.3-5.5,36.1,2.4,44.4,18.5c15.7,30.7,30.2,48.3,44.2,53.7c12.3,4.8,29.9,2.2,52.1-1.1c20.9-3.1,46.9-6.9,77-5.5     c40.1,1.9,78.2,10.8,111.6,23.1c-45.4-92.5-103.5-191.5-198.6-216.2C959.6,90,949,77.6,947,63c-0.5-3.5-0.5-7.1,0.1-10.7     c2.8-18.8,19.4-32.5,38.4-31.7c103,4.3,220,25.6,325.6,140.3c-0.1-0.5-0.1-0.9-0.2-1.4c-1.7-11.8-1.3-23.2-1-34.3v-1.6     c0.3-9.8,0.5-18.5-0.7-26.4c-1.5-10.4-5-21.7-21.1-33.8c-8-6.1-13.1-15-14.5-24.6c-0.7-4.8-0.4-9.7,0.8-14.5     c3.8-14.6,16-25.5,30.9-27.6c68.6-9.6,106,37.2,138.9,78.4c31.6,39.7,64.3,80.6,129.7,90.4c75.1,11.2,141.2,43.9,191.3,94.6     C1814.8,310.5,1846.4,375.8,1856.8,449.2L1856.8,449.2z"/>
			<path id="svg_125" class="st0" d="M855.1,257c60.8,118.8,108.7,62.9,204.7,67.4c98.2,4.6,181.3,56,203.5,84.6     c-56.7-99.8-120.2-309.6-279.5-350.9c126.4,5.3,240.4,38,341.5,180c40.3,56.6,90.4,82.1,138.9,75.3     c-55.7-1.5-84.8-41.8-115.1-151.4c-0.7-2.4-1.2-4.9-1.5-7.4c-1.3-9.1-0.9-19.1-0.6-29.6s0.6-21.6-1-32.7     c-2.8-19.9-11.4-40.1-35.6-58.3c99.9-14,105.5,146.1,257.9,168.8c137.6,20.5,232.7,119.3,251.3,251.8c2,14.3,3.1,29.1,3.3,44.1     c10.5,74.4-8.7,236-147.2,318.2c-194.2,115.3-338.2,37.2-427.6-55.3c-81.4-84.2-79.8-193.1-111.3-228.5     C1092.8,483.3,892.2,521.1,855.1,257 M781.3,267.3c14.3,102,53,180.4,115,233.1c53.2,45.2,111.7,62.3,154.3,74.7     c10.3,3,23.5,6.9,31.3,9.9c3.5,8.6,8.1,24,11.7,35.8c15.2,50.6,38.1,127,101.2,192.3c63.8,66.1,134.9,108.6,211.2,126.4     c99.6,23.2,203.2,3.5,308-58.7c75.7-44.9,131.7-114.7,161.8-201.7c20.8-59.9,28.8-129,21.8-186.1c-0.4-16.5-1.7-33-3.9-49     c-11.4-81.5-46.7-154-101.8-209.9c-55.8-56.5-129.2-92.9-212.3-105.2c-48.4-7.2-71.9-33.9-106.1-76.8     c-17.5-22-35.7-44.7-59.7-62.6c-34-25.4-72.2-35.3-113.5-29.5c-29.8,4.2-54.2,25.9-61.7,55.1c-2.5,9.7-3,19.5-1.7,29     c0.4,2.7,0.9,5.5,1.6,8.1c-13.9-8.5-28.1-16.2-42.8-23.1c-59.3-27.7-125.6-42.2-208.6-45.7c-38.1-1.6-71.2,25.8-76.8,63.4     c-1.1,7.2-1.1,14.4-0.1,21.4c4.1,29.1,25.3,54,55.1,61.7c56.9,14.7,100,64.9,135.3,123.4c-11.9-1.7-24.4-2.9-37.2-3.5     c-33.7-1.6-61.7,2.6-84.2,5.9c-11.8,1.7-27.8,4.1-33.1,3.2c-1.7-1.2-10.5-8.4-24.6-36c-16.6-32.4-54.1-48.1-88.8-37.1     C798,196.9,776.3,231.3,781.3,267.3L781.3,267.3z"/>
		</g>
		
			<linearGradient id="svg_126_1_" gradientUnits="userSpaceOnUse" x1="1976.0446" y1="-3.3839" x2="1975.0944" y2="-2.3387" gradientTransform="matrix(-48.5033 -345.1192 340.8318 -47.9008 97877.3906 681652.625)">
			<stop offset="0" style="stop-color:#FFFFFF"/>
			<stop offset="0.4835" style="stop-color:#FFF200"/>
			<stop offset="1" style="stop-color:#ED1C24"/>
		</linearGradient>
		<path id="svg_126" class="st4" d="M1269.7,139.5c-10.5-74.9-56.4-196.4-157.7-242.1c-89.6-40.4-188.4,10-231.6-55.1    c18.7,133.5,58.8,184.8,187.4,203.9C1196.3,65.2,1245.8,72.7,1269.7,139.5z"/>
		
			<linearGradient id="svg_127_1_" gradientUnits="userSpaceOnUse" x1="1975.7375" y1="-10.5609" x2="1974.7085" y2="-9.5786" gradientTransform="matrix(-36.1385 -257.1387 108.2249 -15.21 73783.7656 507887.3125)">
			<stop offset="0" style="stop-color:#FFFFFF"/>
			<stop offset="0.4835" style="stop-color:#FFF200"/>
			<stop offset="1" style="stop-color:#ED1C24"/>
		</linearGradient>
		<path id="svg_127" class="st5" d="M1376.4,256.3c-41.8-19.3-70.8-43.5-84.1-120c-13-74.8-22.4-102.1-60.3-122    c79.2,24,92,66.1,100.1,115.6C1340.2,179.5,1342.4,240.6,1376.4,256.3z"/>
		
			<linearGradient id="svg_128_1_" gradientUnits="userSpaceOnUse" x1="1975.8304" y1="-7.2629" x2="1973.3647" y2="-5.2789" gradientTransform="matrix(-27.4823 -195.5469 164.3915 -23.1037 56467.1992 386278.375)">
			<stop offset="0" style="stop-color:#FFFFFF"/>
			<stop offset="0.4835" style="stop-color:#FFF200"/>
			<stop offset="1" style="stop-color:#ED1C24"/>
		</linearGradient>
		<path id="svg_128" class="st6" d="M1220.6,344.9c-40,5.6-83.5-24.6-109.9-66.7c-31.7-50.4-29.5-74.1-82-105.8    c80.7-2.4,107.4,32.4,127.1,61.5C1184,275.4,1179.4,310,1220.6,344.9z"/>
		
			<linearGradient id="svg_129_1_" gradientUnits="userSpaceOnUse" x1="1975.7015" y1="-6.9433" x2="1974.7009" y2="-5.9473" gradientTransform="matrix(-36.6132 -260.5165 166.294 -23.3711 74511.6641 515086.75)">
			<stop offset="0" style="stop-color:#FFFFFF"/>
			<stop offset="0.4835" style="stop-color:#FFF200"/>
			<stop offset="1" style="stop-color:#ED1C24"/>
		</linearGradient>
		<path id="svg_129" class="st7" d="M1224.3,773c-37.4-3.7-133.7,31.4-175.8-178.8c-3.2-22.5-14.4-59.8-27.1-58    c84.9-18.1,115.3,61.1,128.3,111.1C1162.8,697.3,1192.6,749,1224.3,773z"/>
		
			<linearGradient id="svg_130_1_" gradientUnits="userSpaceOnUse" x1="1976.5276" y1="-1.0967" x2="1975.6538" y2="-0.4753" gradientTransform="matrix(-103.0117 -732.9662 854.3772 -120.0749 205643.1406 1448769.125)">
			<stop offset="0" style="stop-color:#FFFFFF"/>
			<stop offset="0.4835" style="stop-color:#FFF200"/>
			<stop offset="1" style="stop-color:#ED1C24"/>
		</linearGradient>
		<path id="svg_130" class="st8" d="M1295.6,761c137,148.9,375.9,117.2,473.4-54c87-152.8,21.9-287.8-4.5-331.4    c-20.3-33.5-109.3-126.7-245.6-142.8c-50.2-5.9-99.5-79.6-102.1-97.4c6.1,43.3,57.1,184.3,116,196.8    c-68.8,9.7-124.9,17.5-188.8-30.6s-104.4-138.5-186-140.2c32.1,5.6,104.9,117.8,152.7,235.8c47.8,118,95.7,154.2,95.7,154.2    c-70.6-12.2-106.1-84.9-161.8-126.9c-61.3-46.2-159.5-42.4-210.5-35.2c-51,7.2-110.6,8.5-114.3-18.1    C949.1,417,1049,493.6,1103,494.3C1199.6,495.5,1219.5,678.2,1295.6,761z"/>
		
			<linearGradient id="svg_131_1_" gradientUnits="userSpaceOnUse" x1="1975.7004" y1="-6.7321" x2="1975.0127" y2="-5.2343" gradientTransform="matrix(-40.5866 -288.7887 177.3768 -24.9287 82122.6328 570327.4375)">
			<stop offset="0" style="stop-color:#FFFFFF"/>
			<stop offset="0.4835" style="stop-color:#FFF200"/>
			<stop offset="1" style="stop-color:#ED1C24"/>
		</linearGradient>
		<path id="svg_131" class="st9" d="M994.1,146.4C991.8,82.7,945.7,1.7,887.7-22.2c-58-23.8-108.6-79.7-110.8-95.4    C790-24.7,834,26,859.5,42.6C893.2,64.5,962.6,96.6,994.1,146.4z"/>
	</g>
</g>
<radialGradient id="SVGID_1_" cx="1559.9971" cy="-8.5" r="0" gradientTransform="matrix(1 0 0 -1 0 792)" gradientUnits="userSpaceOnUse">
	<stop offset="0.1198" style="stop-color:#FFFFFF"/>
	<stop offset="0.4672" style="stop-color:#DFDEDE"/>
	<stop offset="1" style="stop-color:#000000"/>
</radialGradient>
<linearGradient id="SVGID_2_" gradientUnits="userSpaceOnUse" x1="1559.9971" y1="-8.5" x2="1559.9971" y2="-8.5" gradientTransform="matrix(1 0 0 -1 0 792)">
	<stop offset="0" style="stop-color:#FFFFFF"/>
	<stop offset="1" style="stop-color:#000000"/>
</linearGradient>
<path class="st10" d="M1560,800.5"/>
</svg>